<?xml version="1.0" encoding="UTF-8" standalone="no"?>
<svg
   xmlns:dc="http://purl.org/dc/elements/1.1/"
   xmlns:cc="http://creativecommons.org/ns#"
   xmlns:rdf="http://www.w3.org/1999/02/22-rdf-syntax-ns#"
   xmlns:svg="http://www.w3.org/2000/svg"
   xmlns="http://www.w3.org/2000/svg"
   xmlns:xlink="http://www.w3.org/1999/xlink"
   xmlns:sodipodi="http://sodipodi.sourceforge.net/DTD/sodipodi-0.dtd"
   xmlns:inkscape="http://www.inkscape.org/namespaces/inkscape"
   width="400mm"
   height="300mm"
   viewBox="0 0 400.00001 300.00001"
   version="1.1"
   id="svg8"
   inkscape:version="1.0 (1.0+r73+1)"
   sodipodi:docname="arm-8er.svg">
  <defs
     id="defs2" />
  <sodipodi:namedview
     inkscape:object-paths="false"
     inkscape:snap-bbox-edge-midpoints="true"
     inkscape:snap-bbox="true"
     id="base"
     pagecolor="#ffffff"
     bordercolor="#666666"
     borderopacity="1.0"
     inkscape:pageopacity="0.0"
     inkscape:pageshadow="2"
     inkscape:zoom="2.5822736"
     inkscape:cx="-71.005026"
     inkscape:cy="751.67029"
     inkscape:document-units="mm"
     inkscape:current-layer="layer1"
     inkscape:document-rotation="0"
     showgrid="false"
     inkscape:snap-center="true"
     inkscape:snap-smooth-nodes="true"
     showguides="true"
     inkscape:guide-bbox="true"
     inkscape:snap-object-midpoints="true"
     inkscape:snap-global="true"
     inkscape:window-width="1920"
     inkscape:window-height="1055"
     inkscape:window-x="0"
     inkscape:window-y="0"
     inkscape:window-maximized="1"
     units="mm">
    <inkscape:grid
       type="xygrid"
       id="grid1345" />
  </sodipodi:namedview>
  <metadata
     id="metadata5">
    <rdf:RDF>
      <cc:Work
         rdf:about="">
        <dc:format>image/svg+xml</dc:format>
        <dc:type
           rdf:resource="http://purl.org/dc/dcmitype/StillImage" />
        <dc:title></dc:title>
      </cc:Work>
    </rdf:RDF>
  </metadata>
  <g
     inkscape:label="Ebene 1"
     inkscape:groupmode="layer"
     id="layer1">
    <use
       height="100%"
       width="100%"
       style="stroke-width:1.0582"
       transform="matrix(0.945,0,0,0.945,-2.64,-97.68)"
       id="use938"
       inkscape:transform-center-y="-37.800003"
       inkscape:transform-center-x="-7.0875034"
       xlink:href="#g1303"
       y="0"
       x="0" />
    <g
       id="g1303"
       style="opacity:0.692759;stroke:#ff0000;stroke-width:0.1;stroke-miterlimit:4;stroke-dasharray:none;stroke-opacity:1"
       inkscape:transform-center-x="-7.5000035"
       inkscape:transform-center-y="-40.000003"
       transform="translate(-296.46569,-110.2297)">
      <path
         d="m 221.01345,224.22971 a 27.45225,27.45225 0 0 1 27.45225,-27.45225 27.45225,27.45225 0 0 1 27.45225,27.45225 H 248.4657 Z"
         sodipodi:arc-type="slice"
         sodipodi:end="0"
         sodipodi:start="3.1415927"
         sodipodi:ry="27.45225"
         sodipodi:rx="27.45225"
         sodipodi:cy="224.22971"
         sodipodi:cx="248.4657"
         sodipodi:type="arc"
         style="opacity:1;fill:none;stroke-width:0.0999999;stroke-linecap:round;stroke-linejoin:round;stroke-miterlimit:4;stroke-dasharray:none;stroke:#0000ff"
         id="circle874" />
      <path
         style="opacity:1;fill:none;stroke:#0000ff;stroke-width:0.1;stroke-linecap:round;stroke-linejoin:round;stroke-miterlimit:4;stroke-dasharray:none;stroke-opacity:1"
         d="m 219.41569,334.2297 h 73.95 l -44.9,-110 z"
         id="path1341"
         sodipodi:nodetypes="cccc" />
      <text
         xml:space="preserve"
         style="font-size:7.05556px;line-height:1.25;font-family:Dyuthi;-inkscape-font-specification:Dyuthi;letter-spacing:0px;word-spacing:0px;stroke-width:0.1;stroke-miterlimit:4;stroke-dasharray:none"
         x="282.76559"
         y="356.19229"
         id="text1587"><tspan
           sodipodi:role="line"
           id="tspan1585"
           x="282.76559"
           y="356.19229"
           style="stroke-width:0.1;stroke-miterlimit:4;stroke-dasharray:none" /></text>
      <path
         sodipodi:nodetypes="csscccssccc"
         id="path876"
         d="m 220.99375,221.31162 c 0.18835,3.65291 0.0876,7.72158 0.35132,11.4383 2.12263,29.9177 1.58569,63.68869 -3.18998,93.83204 -0.32409,2.04563 1.04617,5.58774 1.26065,7.64774 m 43.9686,1.56047 30.95346,3.11209 c -0.57046,-2.49439 -2.83004,-8.31569 -3.07791,-10.82195 -2.0899,-21.13121 -6.4633,-39.50386 -13.26282,-60.7816 -0.37861,-1.18477 -0.64317,-2.40888 -0.96833,-3.62179 l -0.0148,-6.65487 -19.30838,-22.04262"
         style="opacity:1;fill:none;stroke:#ff0000;stroke-width:0.2;stroke-linecap:round;stroke-linejoin:round;stroke-miterlimit:4;stroke-dasharray:none" />
      <path
         sodipodi:open="true"
         d="m 219.4157,334.22971 a 29.049999,29.049999 0 0 1 14.525,-25.15804"
         sodipodi:arc-type="arc"
         sodipodi:end="4.1887902"
         sodipodi:start="3.1415927"
         sodipodi:ry="29.049999"
         sodipodi:rx="29.049999"
         sodipodi:cy="334.22971"
         sodipodi:cx="248.4657"
         sodipodi:type="arc"
         id="path872"
         style="opacity:1;fill:none;stroke-width:0.2;stroke-linecap:round;stroke-linejoin:round;stroke-miterlimit:4;stroke-dasharray:none" />
      <path
         style="opacity:0.692759;fill:#ffff00;stroke:#0000ff;stroke-width:0.1;stroke-linecap:round;stroke-linejoin:round;stroke-miterlimit:4;stroke-dasharray:none;stroke-opacity:1"
         d="m 248.46569,334.2297 v -110"
         id="path1343"
         sodipodi:nodetypes="cc" />
      <text
         xml:space="preserve"
         style="font-size:7.05556px;line-height:1.25;font-family:Dyuthi;-inkscape-font-specification:Dyuthi;letter-spacing:0px;word-spacing:0px;stroke:none;stroke-width:0.1;stroke-miterlimit:4;stroke-dasharray:none"
         x="234.92487"
         y="343.23434"
         id="text1535"><tspan
           sodipodi:role="line"
           id="tspan1533"
           x="234.92487"
           y="343.23434"
           style="stroke:none;stroke-width:0.1;stroke-miterlimit:4;stroke-dasharray:none">94.5%</tspan><tspan
           sodipodi:role="line"
           x="234.92487"
           y="352.0538"
           style="stroke:none;stroke-width:0.1;stroke-miterlimit:4;stroke-dasharray:none"
           id="tspan1537">43.27°</tspan></text>
      <path
         d="m 241.3782,211.9538 a 14.175,14.175 0 0 1 18.6505,4.07666 14.175,14.175 0 0 1 -2.32319,18.94897"
         sodipodi:arc-type="arc"
         sodipodi:open="true"
         sodipodi:end="0.86079044"
         sodipodi:start="4.1887902"
         sodipodi:ry="14.175"
         sodipodi:rx="14.175"
         sodipodi:cy="224.22971"
         sodipodi:cx="248.4657"
         sodipodi:type="arc"
         style="opacity:1;fill:none;stroke:#ff0000;stroke-width:0.2;stroke-linecap:round;stroke-linejoin:round;stroke-miterlimit:4;stroke-dasharray:none"
         id="circle944" />
      <circle
         r="2"
         cy="224.22971"
         cx="248.4657"
         id="path940"
         style="opacity:1;fill:none;stroke:#ff0000;stroke-width:0.2;stroke-linecap:round;stroke-linejoin:round;stroke-miterlimit:4;stroke-dasharray:none" />
      <path
         sodipodi:open="true"
         id="path946"
         style="opacity:1;fill:none;stroke:#ff0000;stroke-width:0.2;stroke-linecap:round;stroke-linejoin:round;stroke-miterlimit:4;stroke-dasharray:none"
         sodipodi:type="arc"
         sodipodi:cx="248.4657"
         sodipodi:cy="224.22971"
         sodipodi:rx="27.45225"
         sodipodi:ry="27.45225"
         sodipodi:start="3.1415927"
         sodipodi:end="4.1887902"
         sodipodi:arc-type="arc"
         d="m 221.01345,224.22971 a 27.45225,27.45225 0 0 1 13.72612,-23.77435" />
      <path
         sodipodi:nodetypes="cc"
         id="path948"
         d="m 234.73957,200.45536 6.63863,11.49844"
         style="opacity:1;fill:#ffff00;stroke:#ff0000;stroke-width:0.2;stroke-linecap:round;stroke-linejoin:round;stroke-miterlimit:4;stroke-dasharray:none" />
      <path
         id="path952"
         style="opacity:1;fill:none;stroke:#ff0000;stroke-width:0.2;stroke-linecap:round;stroke-linejoin:round;stroke-miterlimit:4;stroke-dasharray:none"
         sodipodi:type="arc"
         sodipodi:cx="248.46568"
         sodipodi:cy="334.22971"
         sodipodi:rx="15"
         sodipodi:ry="15"
         sodipodi:start="4.1887902"
         sodipodi:end="0.10421924"
         sodipodi:open="true"
         sodipodi:arc-type="arc"
         d="m 240.96568,321.23932 a 15,15 0 0 1 15.66644,0.40828 15,15 0 0 1 6.75217,14.14257" />
      <path
         style="opacity:1;fill:none;stroke:#0000ff;stroke-width:0.1;stroke-linecap:round;stroke-linejoin:round;stroke-miterlimit:4;stroke-dasharray:none"
         id="path954"
         sodipodi:type="arc"
         sodipodi:cx="248.4657"
         sodipodi:cy="334.22971"
         sodipodi:rx="29.049999"
         sodipodi:ry="29.049999"
         sodipodi:start="0"
         sodipodi:end="3.1415927"
         sodipodi:arc-type="arc"
         d="m 277.5157,334.22971 a 29.049999,29.049999 0 0 1 -14.525,25.15803 29.049999,29.049999 0 0 1 -29.05,0 29.049999,29.049999 0 0 1 -14.525,-25.15803"
         sodipodi:open="true" />
      <path
         id="path956"
         d="m 233.9407,309.07167 7.02498,12.16765"
         style="opacity:1;fill:none;stroke:#ff0000;stroke-width:0.2;stroke-linecap:round;stroke-linejoin:round;stroke-miterlimit:4;stroke-dasharray:none" />
    </g>
    <use
       x="0"
       y="0"
       xlink:href="#g1303"
       inkscape:transform-center-y="-37.509157"
       id="use1347"
       transform="rotate(17.309418,111.74187,494.46465)"
       width="100%"
       height="100%"
       inkscape:transform-center-x="-6.4810208" />
    <use
       inkscape:transform-center-x="-31.097173"
       height="100%"
       width="100%"
       transform="matrix(0.46419976,0.82313035,-0.82313035,0.46419976,279.09764,19.231726)"
       id="use1941"
       inkscape:transform-center-y="-7.0105557"
       xlink:href="#g1303"
       y="0"
       x="0"
       style="stroke-width:1.0582" />
    <use
       style="stroke-width:1.11979"
       x="0"
       y="0"
       xlink:href="#g1303"
       inkscape:transform-center-y="6.113548"
       id="use1943"
       transform="matrix(-0.21376427,0.86706314,-0.86706314,-0.21376427,346.94063,122.14246)"
       width="100%"
       height="100%"
       inkscape:transform-center-x="-34.293102" />
    <use
       inkscape:transform-center-x="-9.2520629"
       height="100%"
       width="100%"
       transform="matrix(-0.70871776,0.45814944,-0.45814944,-0.70871776,326.96302,236.89814)"
       id="use1945"
       inkscape:transform-center-y="26.32085"
       xlink:href="#g1303"
       y="0"
       x="0"
       style="stroke-width:1.18496" />
    <use
       style="stroke-width:1.25393"
       x="0"
       y="0"
       xlink:href="#g1303"
       inkscape:transform-center-y="31.180619"
       id="use1947"
       transform="matrix(-0.78441858,-0.143818,0.143818,-0.78441858,238.88498,302.91973)"
       width="100%"
       height="100%"
       inkscape:transform-center-x="5.6870194" />
    <use
       inkscape:transform-center-x="22.083658"
       height="100%"
       width="100%"
       transform="matrix(-0.44658987,-0.60705678,0.60705678,-0.44658987,135.51538,291.29665)"
       id="use1949"
       inkscape:transform-center-y="10.903664"
       xlink:href="#g1303"
       y="0"
       x="0"
       style="stroke-width:1.32691" />
    <use
       style="stroke-width:1.40414"
       x="0"
       y="0"
       xlink:href="#g1303"
       inkscape:transform-center-y="-5.2243199"
       id="use1951"
       transform="matrix(0.08592226,-0.70697967,0.70697967,0.08592226,71.917001,216.34249)"
       width="100%"
       height="100%"
       inkscape:transform-center-x="28.20116" />
    <use
       inkscape:transform-center-x="12.060524"
       height="100%"
       width="100%"
       transform="matrix(0.51705949,-0.43080663,0.43080663,0.51705949,76.706575,123.57255)"
       id="use1953"
       inkscape:transform-center-y="-18.343105"
       xlink:href="#g1303"
       y="0"
       x="0"
       style="stroke-width:1.48586" />
    <use
       style="stroke-width:1.57234"
       x="0"
       y="0"
       xlink:href="#g1303"
       inkscape:transform-center-y="-25.375742"
       id="use1955"
       transform="matrix(0.63483051,0.03848779,-0.03848779,0.63483051,140.09281,62.841421)"
       width="100%"
       height="100%"
       inkscape:transform-center-x="-4.7437565" />
    <use
       inkscape:transform-center-x="-15.057538"
       height="100%"
       width="100%"
       transform="matrix(0.41188703,0.43768679,-0.43768679,0.41188703,223.04579,62.111173)"
       id="use1957"
       inkscape:transform-center-y="-12.80583"
       xlink:href="#g1303"
       y="0"
       x="0"
       style="stroke-width:1.66385" />
    <use
       style="stroke-width:1.76069"
       x="0"
       y="0"
       xlink:href="#g1303"
       inkscape:transform-center-y="4.2178401"
       id="use906"
       transform="matrix(-9.3349327e-5,0.56796044,-0.56796044,-9.3349327e-5,280.59758,115.34034)"
       width="100%"
       height="100%"
       inkscape:transform-center-x="-20.199841" />
    <use
       inkscape:transform-center-x="-12.727161"
       height="100%"
       width="100%"
       transform="matrix(-0.36795388,0.39074432,-0.39074432,-0.36795388,285.71951,189.24499)"
       id="use908"
       inkscape:transform-center-y="12.592548"
       xlink:href="#g1303"
       y="0"
       x="0"
       style="stroke-width:1.86316" />
    <use
       style="stroke-width:1.9716"
       x="0"
       y="0"
       xlink:href="#g1303"
       inkscape:transform-center-y="17.977396"
       id="use910"
       transform="matrix(-0.50628336,0.03052735,-0.03052735,-0.50628336,241.37297,243.41531)"
       width="100%"
       height="100%"
       inkscape:transform-center-x="3.1034801" />
    <use
       inkscape:transform-center-x="10.440232"
       height="100%"
       width="100%"
       transform="matrix(-0.36813947,-0.30693365,0.30693365,-0.36813947,175.77062,251.96412)"
       id="use912"
       inkscape:transform-center-y="12.501315"
       xlink:href="#g1303"
       y="0"
       x="0"
       style="stroke-width:2.08635" />
    <use
       style="stroke-width:2.20778"
       x="0"
       y="0"
       xlink:href="#g1303"
       inkscape:transform-center-y="-1.7805523"
       id="use914"
       transform="matrix(-0.05449843,-0.44965427,0.44965427,-0.05449843,125.09327,215.35328)"
       width="100%"
       height="100%"
       inkscape:transform-center-x="15.939432" />
    <use
       inkscape:transform-center-x="12.158876"
       height="100%"
       width="100%"
       transform="matrix(0.2537587,-0.34470085,0.34470085,0.2537587,113.93721,157.33627)"
       id="use916"
       inkscape:transform-center-y="-8.5690617"
       xlink:href="#g1303"
       y="0"
       x="0"
       style="stroke-width:2.33628" />
    <use
       style="stroke-width:2.47225"
       x="0"
       y="0"
       xlink:href="#g1303"
       inkscape:transform-center-y="-14.078693"
       id="use918"
       transform="matrix(0.39788332,-0.07281412,0.07281412,0.39788332,143.84073,110.18946)"
       width="100%"
       height="100%"
       inkscape:transform-center-x="-0.67910519" />
    <use
       inkscape:transform-center-x="-6.9497378"
       height="100%"
       width="100%"
       transform="matrix(0.32094183,0.20762194,-0.20762194,0.32094183,194.95566,97.118118)"
       id="use920"
       inkscape:transform-center-y="-11.556238"
       xlink:href="#g1303"
       y="0"
       x="0"
       style="stroke-width:2.61614" />
    <use
       style="stroke-width:2.7684"
       x="0"
       y="0"
       xlink:href="#g1303"
       inkscape:transform-center-y="-0.22733692"
       id="use922"
       transform="matrix(0.08635045,0.35074771,-0.35074771,0.08635045,238.59386,121.23303)"
       width="100%"
       height="100%"
       inkscape:transform-center-x="-12.386759" />
    <use
       inkscape:transform-center-x="-10.691715"
       height="100%"
       width="100%"
       transform="matrix(-0.16777627,0.29727655,-0.29727655,-0.16777627,253.00048,166.09225)"
       id="use924"
       inkscape:transform-center-y="5.5551833"
       xlink:href="#g1303"
       y="0"
       x="0"
       style="stroke-width:2.92951427;stroke-miterlimit:4;stroke-dasharray:none" />
    <use
       style="stroke-width:3.10001;stroke-miterlimit:4;stroke-dasharray:none"
       x="0"
       y="0"
       xlink:href="#g1303"
       inkscape:transform-center-y="10.854448"
       id="use926"
       transform="matrix(-0.30800161,0.0958763,-0.0958763,-0.30800161,233.85643,206.29091)"
       width="100%"
       height="100%"
       inkscape:transform-center-x="-0.96302716" />
    <use
       inkscape:transform-center-x="4.3604978"
       height="100%"
       width="100%"
       transform="matrix(-0.27403387,-0.1335334,0.1335334,-0.27403387,194.6455,221.55065)"
       id="use928"
       inkscape:transform-center-y="9.8442291"
       xlink:href="#g1303"
       y="0"
       x="0"
       style="stroke-width:3.28043;stroke-miterlimit:4;stroke-dasharray:none" />
    <use
       style="stroke-width:3.47135;stroke-miterlimit:4;stroke-dasharray:none"
       x="0"
       y="0"
       xlink:href="#g1303"
       inkscape:transform-center-y="1.5500024"
       id="use930"
       transform="matrix(-0.10206378,-0.26938446,0.26938446,-0.10206378,157.78075,206.65223)"
       width="100%"
       height="100%"
       inkscape:transform-center-x="9.4720521" />
    <use
       inkscape:transform-center-x="9.0228724"
       height="100%"
       width="100%"
       transform="matrix(0.10426209,-0.25146987,0.25146987,0.10426209,142.06497,172.52215)"
       id="use932"
       inkscape:transform-center-y="-3.3428519"
       xlink:href="#g1303"
       y="0"
       x="0"
       style="stroke-width:3.67339;stroke-miterlimit:4;stroke-dasharray:none" />
    <use
       style="stroke-width:3.88719;stroke-miterlimit:4;stroke-dasharray:none"
       x="0"
       y="0"
       xlink:href="#g1303"
       inkscape:transform-center-y="-8.2296206"
       id="use934"
       transform="matrix(0.23462776,-0.10549799,0.10549799,0.23462776,153.35854,138.85806)"
       width="100%"
       height="100%"
       inkscape:transform-center-x="2.0081973" />
    <use
       inkscape:transform-center-x="-2.481447"
       height="100%"
       width="100%"
       transform="matrix(0.2297788,0.07938582,-0.07938582,0.2297788,182.93499,123.00959)"
       id="use936"
       inkscape:transform-center-y="-8.2345004"
       xlink:href="#g1303"
       y="0"
       x="0"
       style="stroke-width:4.11343;stroke-miterlimit:4;stroke-dasharray:none" />
  </g>
  <g
     inkscape:label="Bilder"
     id="layer2"
     inkscape:groupmode="layer">
    <image
       sodipodi:absref="/home/testy/damkenCloud/svg/john_edmark_spiral_arm/Screenshot from 2020-09-27 15-48-55.png"
       xlink:href="Screenshot%20from%202020-09-27%2015-48-55.png"
       y="160.08749"
       x="616.49731"
       width="576.79169"
       height="305.15277"
       preserveAspectRatio="none"
       id="image430" />
    <image
       sodipodi:absref="/home/testy/damkenCloud/svg/john_edmark_spiral_arm/Screenshot from 2020-09-27 15-51-45.png"
       xlink:href="Screenshot%20from%202020-09-27%2015-51-45.png"
       y="-152.81757"
       x="441.00128"
       width="391.58334"
       height="221.54443"
       preserveAspectRatio="none"
       id="image444" />
    <image
       sodipodi:absref="/home/testy/damkenCloud/svg/john_edmark_spiral_arm/Screenshot from 2020-09-27 16-01-40.png"
       xlink:href="Screenshot%20from%202020-09-27%2016-01-40.png"
       y="-175.77936"
       x="-282.27658"
       width="278.51797"
       height="164.39444"
       preserveAspectRatio="none"
       id="image458"
       transform="scale(-1,1)"
       style="stroke-width:0.97661" />
    <path
       transform="matrix(0.94154186,0.54359942,0.54359942,-0.94154186,848.27454,182.09609)"
       d="m -320.69684,51.431881 c 0.65245,15.056225 -12.4075,26.985009 -26.9896,27.45188 -18.42004,0.58975 -32.94325,-15.437752 -33.34358,-33.321454 -0.49692,-22.198344 18.87291,-39.6304612 40.47038,-39.934757 26.40693,-0.3720582 47.07428,22.729565 47.25109,48.468828 0.21336,31.061002 -27.02367,55.301362 -57.34803,55.317372 -36.17529,0.0191 -64.33747,-31.770614 -64.1576,-67.138168 0.21238,-41.76402115 36.98528,-74.207553 77.86843,-73.795062 47.84105,0.482693 84.93587,42.682117 84.25237,89.567145 -0.79336,54.419855 -48.87512,96.546005 -102.26183,95.551535 -61.51351,-1.14585 -109.0609,-55.577899 -107.71402,-115.979243 1.4554,-65.267481 56.51935,-117.447684 120.76602,-120.641166"
       sodipodi:t0="0.50715959"
       sodipodi:argument="-30.17284"
       sodipodi:radius="132.14087"
       sodipodi:revolution="5.5556312"
       sodipodi:expansion="2.5"
       sodipodi:cy="49.088173"
       sodipodi:cx="-344.78775"
       id="path1293"
       style="fill:none;fill-rule:evenodd;stroke:#000000;stroke-width:0.243362"
       sodipodi:type="spiral" />
    <path
       sodipodi:type="spiral"
       style="fill:none;fill-rule:evenodd;stroke:#000000;stroke-width:0.210632"
       id="path1295"
       sodipodi:cx="-344.78775"
       sodipodi:cy="49.088173"
       sodipodi:expansion="2.5"
       sodipodi:revolution="5.7329526"
       sodipodi:radius="142.9388"
       sodipodi:argument="-30.17284"
       sodipodi:t0="0.47542289"
       d="m -325.04045,38.778259 c 8.16621,11.291857 4.10588,27.136462 -6.90813,34.901672 -14.01312,9.879671 -33.48453,4.802612 -42.92626,-8.883521 -11.79175,-17.092585 -5.55816,-40.652193 11.15597,-51.968327 20.54473,-13.9095924 48.67213,-6.3737511 62.06767,13.738825 16.24006,24.383443 7.25057,57.57578 -16.64488,73.262616 -28.62218,18.789826 -67.39351,8.189806 -85.5902,-19.886464 -21.56536,-33.273925 -9.19266,-78.1547102 23.47545,-99.086272 38.35128,-24.572966 89.88786,-10.260287 113.78563,27.4233175 27.81875,43.8664795 11.39385,102.6206645 -31.74122,129.7220845 -49.83143,31.30869 -116.38003,12.59448 -146.92854,-36.43997 -35.04861,-56.257715 -13.86332,-131.192208 41.53008,-165.437078 63.15665,-39.044202 147.0828,-15.201473 185.27899,47.021797 1.15608,1.883303 2.26836,3.793491 3.33578,5.728424"
       transform="matrix(-1.0878478,0.62806927,0.62806927,1.0878478,363.6427,471.95163)" />
    <use
       inkscape:transform-center-x="37.365963"
       height="100%"
       width="100%"
       transform="rotate(-106.49534,283.19234,-215.15808)"
       id="use1539"
       inkscape:transform-center-y="2.3620665"
       xlink:href="#g1303"
       y="0"
       x="0" />
  </g>
</svg>
